# xmcd CD database file
#
# Track frame offsets:
#	150
#	44156
#	91972
#	126011
#	171098
#	213929
#
# Disc length: 3484 seconds
#
# Revision: 0
# Processed by: cddbd v1.5.2PL0 Copyright (c) Steve Scherf et al.
# Submitted via: CDex 1.70beta1
#
DISCID=4f0d9a06
DTITLE=Murley, Schwager and Walace - Izzy's Memorial Concert
DYEAR=2007
DGENRE=Jazz
TTITLE0=Somebody Loves Me
TTITLE1=Golden Earrings
TTITLE2=I've Got You Under My Skin
TTITLE3=Every Time We Say Goodbye
TTITLE4=Be My Love
TTITLE5=The Shadow Of Your Smile
EXTD=YEAR: 2007
EXTT0=
EXTT1=
EXTT2=
EXTT3=
EXTT4=
EXTT5=
PLAYORDER=
